<?xml version="1.0" encoding="UTF-8"?>
<svg id="Layer_1" data-name="Layer 1" xmlns="http://www.w3.org/2000/svg" viewBox="0 0 408 345">
  <defs>
    <style>
      .cls-1 {
        fill: #f4f4f4;
      }
    </style>
  </defs>
  <path class="cls-1" d="M349.13,169.15L202.83,22.85v122.72c0,16.68,10.73,30.85,25.67,35.99,3.88,1.34,8.04,2.06,12.38,2.06h59.48l-68.8,68.8c-2.43-.54-4.77-1.32-7-2.32-8.24-3.69-14.87-10.32-18.55-18.55-2.05-4.57-3.18-9.64-3.18-14.97v98.87l146.3-146.3Z"/>
  <path class="cls-1" d="M41.72,168.61l146.3,146.3v-122.72c0-16.68-10.73-30.85-25.67-35.99-3.88-1.34-8.04-2.06-12.38-2.06h-59.48s68.8-68.8,68.8-68.8c2.43,.54,4.77,1.32,7,2.32,8.24,3.69,14.87,10.32,18.55,18.55,2.05,4.57,3.18,9.64,3.18,14.97V22.31S41.72,168.61,41.72,168.61Z"/>
</svg>